<?xml version="1.0" encoding="utf-8"?>
<!-- Generator: Adobe Illustrator 18.0.0, SVG Export Plug-In . SVG Version: 6.00 Build 0)  -->
<!DOCTYPE svg PUBLIC "-//W3C//DTD SVG 1.1//EN" "http://www.w3.org/Graphics/SVG/1.1/DTD/svg11.dtd">
<svg version="1.1" id="Layer_1" xmlns="http://www.w3.org/2000/svg" xmlns:xlink="http://www.w3.org/1999/xlink" x="0px" y="0px"
	 viewBox="848.3 0 303.3 383.1" enable-background="new 848.3 0 303.3 383.1" xml:space="preserve">
<path fill="#FFBCA1" d="M1019.3,303.3h-38.5c-73.1,0-132.4-59.2-132.4-132.3v-38.5C848.3,59.3,907.6,0,980.8,0h38.5
	c73.1,0,132.3,59.3,132.3,132.4V171C1151.7,244.1,1092.5,303.3,1019.3,303.3z"/>
<polygon fill="#FF4040" points="1000.1,266.9 878.8,220.8 878.8,202.3 1000.1,213.1 1121.2,202.3 1121.2,220.8 "/>
<path fill="#AFA137" d="M1000.1,248.4l-121.2-46.1c0,0,8-3.1,9.5-3.6c7.2-2.7,14.8-4.9,21.7-7.9c14.5-6.4,30.3-10.5,46.1-10.7
	c9.1-0.1,17.6,2.7,26.4,1.3c10.3-1.7,20.1-5.6,30.4-7.6c18.6-3.5,36.7,1.3,54,8.1c17.7,7,34.9,13.2,52.7,19.9c0.5,0.2,1,0.3,1.5,0.5
	L1000.1,248.4z"/>
<g>
	<g>
		<path fill="#FFFFFF" d="M918.6,204.6c-1.5-33.6,32.6-51.7,57.7-65.5c21.9-12,49.4-27.6,43.7-56.9c-1.2-6.1-10.5-3.5-9.3,2.6
			c2.6,13.4-5,23.6-15.2,31.3c-12,9.1-25.8,15.5-38.9,22.9c-24.1,13.7-49,35.3-47.8,65.6C909.1,210.7,918.8,210.8,918.6,204.6
			L918.6,204.6z"/>
	</g>
</g>
<g>
	<g>
		<path fill="#FFFFFF" d="M960.8,149.5c33.4,7,68.6-3,93.4-26.6c4.5-4.3-2.4-11.1-6.9-6.9c-22.1,21.1-54.1,30.3-83.9,24.1
			C957.3,138.9,954.7,148.2,960.8,149.5L960.8,149.5z"/>
	</g>
</g>
<g>
	<path fill="#68751C" d="M960.8,79.3c8.8,2.1,23.7-8,30.3-11.2c8.6-4.2,17.5-7.4,26.1-11.2c3.3-1.5,14.1-4.9,14.2-9.7
		c0.2-6-11.2-6.3-15-5.9c-7.6,0.7-15,3.1-22.3,5.2c-7.5,2.2-14.8,5.2-21.7,9c-5.2,2.8-12.4,7.7-15.5,12.8c-1.9,3.1-1.8,7.7,1.2,9.9
		C958.8,78.7,959.7,79.1,960.8,79.3z"/>
	<path fill="#68751C" d="M1014.5,63.1c1.5-0.9,3-1.6,4.5-2.4c12.4-5.9,26.8-10.7,40.9-11.8c12.3-1,25.9-3.2,38.1,0.1
		c6.3,1.7,13.3,7.8,10,13.7c-2.5,4.4-12.5,10.3-16.9,13.5c-16.2,11.5-38.8,16.5-59.4,17.6c-15,0.7-39.7-7.8-26-24
		C1008,67.1,1011.2,65,1014.5,63.1z"/>
	<path fill="#68751C" d="M1097,76.5c3.4,0.1,7.4,1,9,4.1c1.3,2.6,0.3,5.7-1.5,7.8c-1.9,2.1-4.5,3.3-7.2,4.4
		c-13.3,5.6-27.5,8.9-41.9,9.9c-4,0.2-8.1,0.3-12-1c-3.9-1.3-7.3-4.2-8.4-8c-2.4-8.9,17.1-11.8,22.4-12.7c5.2-1,10.5-1.6,15.7-1.8
		C1081.1,78.6,1088.8,76.1,1097,76.5z"/>
	<path fill="#68751C" d="M1095.1,134.8c-5.2-13-36.8,1.3-44,5.9c-2.7,1.7-5.5,4.3-4.9,7.4c0.5,3.3,4.5,4.8,7.9,5.2
		C1062.4,154.3,1101.2,150.1,1095.1,134.8z"/>
	<path fill="#68751C" d="M995.9,92.8c-1.3,8.6-12.8,18-20.6,20.7c-7.5,2.7-20-2.9-15.4-12c4.1-7.9,24.2-22.1,33-16.3
		C995.4,86.8,996.3,90,995.9,92.8z"/>
	<path fill="#68751C" d="M1018.1,135.4c12.3,1.5,24.9-0.1,36.5-4.5c2.6-1,5.2-2.2,6.3-4.8c0.7-1.9,0.2-4.3-1.3-5.7
		c-1.5-1.4-3.9-1.8-5.7-1c-3.4-3.7-9.4-3.4-14.5-2.5c-7.9,1.6-15.7,4.5-22.9,8.2c-2.6,1.4-5.5,3.7-4.7,6.5
		C1012.7,134.3,1015.6,135.1,1018.1,135.4z"/>
	<path fill="#68751C" d="M1032.4,125.5c16.3,3.6,34.2-1.1,48.1-10.1c1.8-1.2,3.9-3,3.5-5.2c-0.4-2.7-3.9-3.5-6.6-3.4
		c-15.8,0.2-31.9,4.2-45.7,12.2c-1.6,0.9-3.3,2.4-2.9,4.1C1029.3,124.5,1031,125.2,1032.4,125.5z"/>
	<g>
		<path fill="#68751C" d="M950.9,103.9c1.5-1.8,2.8-4.1,2.1-6.2c-3-11.9-19.2,3.5-23,7.1c-4.9,4.5-4.7,8.5,3.3,8.5
			C939.9,113.1,946.8,108.7,950.9,103.9z"/>
	</g>
</g>
<g>
	<path fill="#0C3251" d="M875.2,368.1c1.5-1.9,4.4-2.1,6.2-0.6c3.7,3.1,10.3,6.6,16.4,6.6c4.3,0,8.1-1.3,10.7-3.2s3.6-4.1,3.6-6.2
		c0-1.1-0.2-1.9-0.7-2.8c-0.5-0.9-1.3-1.7-2.6-2.6c-2.5-1.6-6.6-3.1-11.8-4.1h-0.2c-4.1-0.7-7.8-1.8-11-3.3
		c-3.2-1.5-6.1-3.6-7.9-6.6c-1.3-2-1.9-4.5-1.9-7.1c0-5.1,2.9-9.6,6.9-12.5c4.1-2.9,9.2-4.5,14.8-4.5c8.2,0,14.3,4.1,18.6,6.9
		c1.9,1.4,2.6,4.1,1.2,6.1c-1.3,2-4.1,2.7-6.1,1.3c-4.4-2.9-8.6-5.5-13.8-5.5c-3.9,0-7.3,1.2-9.6,2.9c-2.4,1.7-3.2,3.6-3.2,5.4
		c0,1.1,0.2,1.7,0.6,2.4c0.4,0.6,1.2,1.5,2.4,2.2c2.2,1.5,6.1,2.9,10.7,3.7h0.2c4.4,0.9,8.4,1.9,11.8,3.6c3.5,1.7,6.6,4,8.6,7.1
		c1.3,2,2,4.6,2,7.3c0,5.5-3.1,10.2-7.4,13.3c-4.2,3.1-9.7,4.9-15.8,4.9c-9.2-0.1-17-4.7-21.9-8.6C874,372.8,873.7,370,875.2,368.1z
		"/>
	<path fill="#0C3251" d="M1014.5,330.2l-21,49.9c-0.1,0.2-0.2,0.6-0.4,0.7L993,381c-0.1,0.2-0.2,0.3-0.4,0.5c0,0.2-0.1,0.2-0.1,0.2
		c-0.2,0.1-0.4,0.2-0.6,0.4l0,0c-0.2,0.2-0.4,0.4-0.7,0.5H991c0,0-0.1,0-0.1,0.1c-0.2,0-0.4,0.1-0.6,0.2c-0.1,0-0.2,0-0.2,0
		c-0.2,0.1-0.5,0.1-0.9,0.1c-0.2,0-0.5,0-0.7-0.1c-0.2,0-0.2,0-0.2,0c-0.2-0.1-0.4-0.2-0.6-0.2c-0.1-0.1-0.1-0.1-0.2-0.1
		c-0.3-0.1-0.6-0.3-0.7-0.5c-0.1,0-0.1,0-0.1,0c-0.2-0.2-0.4-0.3-0.6-0.4c-0.1-0.1-0.1-0.1-0.2-0.2c-0.1-0.2-0.2-0.3-0.3-0.5
		c-0.2,0-0.2-0.1-0.2-0.1c-0.2-0.2-0.2-0.5-0.3-0.7l-11.1-26.6l-11.2,26.6c-0.1,0.2-0.2,0.6-0.3,0.7c-0.1,0-0.1,0.1-0.1,0.1
		c-0.2,0.2-0.3,0.3-0.5,0.5c0,0.2-0.1,0.2-0.1,0.2c-0.2,0.1-0.3,0.2-0.5,0.4c-0.2,0-0.2,0-0.2,0c-0.2,0.2-0.5,0.4-0.6,0.5
		c-0.1,0-0.1,0-0.1,0s-0.1,0-0.1,0.1c-0.3,0-0.5,0.1-0.6,0.2c-0.1,0-0.2,0-0.2,0c-0.2,0.1-0.5,0.1-0.7,0.1c-0.2,0-0.6,0-0.9-0.1
		c-0.1,0-0.2,0-0.2,0c-0.2-0.1-0.4-0.2-0.6-0.2c-0.1-0.1-0.1-0.1-0.2-0.1c-0.2-0.1-0.6-0.3-0.7-0.5c-0.1,0-0.1,0-0.1,0
		c-0.2-0.2-0.3-0.3-0.6-0.4c-0.1-0.1-0.1-0.1-0.2-0.2c-0.2-0.2-0.2-0.3-0.4-0.5v-0.1c-0.2-0.2-0.2-0.5-0.4-0.7l-21.1-49.9
		c-1-2.4,0.1-5.1,2.6-6.1c2.4-1.1,5.1,0.1,6.1,2.5l16.8,39.6l11-26.3c0.7-1.9,2.6-2.9,4.5-2.9c1.8,0,3.6,1.1,4.5,2.9l11,26.3
		l16.7-39.6c1.1-2.4,3.7-3.5,6.2-2.5C1014.4,325.1,1015.5,327.9,1014.5,330.2z"/>
	<path fill="#0C3251" d="M1057,368.9h-20.8l-4.2,11.1c-0.7,1.9-2.6,3-4.5,3c-0.6,0-1.1-0.1-1.6-0.2c-2.5-1-3.6-3.6-2.8-6.2l19-50.4
		c0.7-1.9,2.7-3.1,4.5-3c1.9-0.1,3.7,1.1,4.5,3l19,50.4c0.9,2.5-0.3,5.2-2.8,6.2c-0.4,0.2-1.1,0.2-1.6,0.2c-1.9,0-3.6-1.1-4.4-3
		L1057,368.9z M1053.5,359.4l-7-18.4l-7,18.4H1053.5z"/>
	<path fill="#0C3251" d="M1123.9,331.1l-17.6,24.1v23.1c0,2.7-2,4.7-4.7,4.7c-2.5,0-4.7-2-4.7-4.7v-23.1l-17.3-24.1
		c-1.6-2-1.2-4.9,1-6.5c2.1-1.5,5-1.1,6.5,1.1l14.7,20l14.7-20c1.6-2.1,4.5-2.6,6.6-1.1C1125,326.1,1125.4,329,1123.9,331.1z"/>
</g>
</svg>
