<?xml version="1.0" encoding="utf-8"?>
<!-- Generator: Adobe Illustrator 18.0.0, SVG Export Plug-In . SVG Version: 6.00 Build 0)  -->
<!DOCTYPE svg PUBLIC "-//W3C//DTD SVG 1.1//EN" "http://www.w3.org/Graphics/SVG/1.1/DTD/svg11.dtd">
<svg version="1.1" id="Layer_1" xmlns="http://www.w3.org/2000/svg" xmlns:xlink="http://www.w3.org/1999/xlink" x="0px" y="0px"
	 viewBox="1797.1 0 801.9 383" enable-background="new 1797.1 0 801.9 383" xml:space="preserve">
<rect x="1797.2" fill="#FFBCA1" width="801.9" height="383"/>
<polygon fill="#FF4040" points="2026,292.6 1903.5,246 1903.5,227.2 2026,238.2 2148.5,227.2 2148.5,246 "/>
<path fill="#AFA137" d="M2026,273.9l-122.4-46.7c0,0,8.1-3.1,9.6-3.7c7.3-2.7,14.9-5,22-8c14.6-6.5,30.6-10.6,46.7-10.8
	c9.2-0.1,17.8,2.7,26.7,1.3c10.4-1.7,20.4-5.6,30.7-7.7c18.8-3.6,37.1,1.3,54.6,8.2c17.9,7,35.3,13.3,53.3,20.1
	c0.5,0.2,1,0.3,1.5,0.5L2026,273.9z"/>
<g>
	<g>
		<path fill="#FFFFFF" d="M1943.6,229.6c-1.5-34,32.9-52.3,58.3-66.3c22.2-12.1,49.9-27.9,44.2-57.5c-1.2-6.2-10.6-3.6-9.4,2.6
			c2.6,13.5-5.1,23.8-15.4,31.6c-12.1,9.2-26.1,15.7-39.3,23.2c-24.4,13.9-49.6,35.7-48.3,66.4
			C1934.2,235.8,1943.9,235.9,1943.6,229.6L1943.6,229.6z"/>
	</g>
</g>
<g>
	<g>
		<path fill="#FFFFFF" d="M1986.4,173.9c33.8,7,69.4-3,94.4-26.8c4.5-4.3-2.4-11.3-6.9-6.9c-22.3,21.3-54.7,30.6-84.9,24.4
			C1982.8,163.1,1980.2,172.6,1986.4,173.9L1986.4,173.9z"/>
	</g>
</g>
<g>
	<path fill="#68751C" d="M1986.2,102.9c8.9,2.2,23.9-8.1,30.6-11.4c8.7-4.2,17.6-7.5,26.4-11.4c3.4-1.5,14.3-5,14.4-9.9
		c0.2-6.1-11.4-6.4-15.2-6c-7.7,0.8-15.2,3.1-22.5,5.3c-7.6,2.3-14.9,5.3-22,9.1c-5.3,2.8-12.6,7.8-15.7,13c-1.9,3.1-1.8,7.8,1.2,10
		C1984.3,102.3,1985.3,102.7,1986.2,102.9z"/>
	<path fill="#68751C" d="M2040.7,86.5c1.5-0.9,3-1.6,4.5-2.4c12.6-6,27.1-10.8,41.4-11.9c12.4-1,26.2-3.2,38.5,0.1
		c6.4,1.7,13.4,7.9,10.1,13.9c-2.5,4.4-12.7,10.4-17.1,13.6c-16.3,11.6-39.2,16.7-60.1,17.8c-15.2,0.8-40.2-7.9-26.3-24.2
		C2034.1,90.6,2037.2,88.4,2040.7,86.5z"/>
	<path fill="#68751C" d="M2123.9,100c3.5,0.1,7.5,1,9.1,4.1c1.3,2.6,0.3,5.7-1.5,7.9c-1.9,2.2-4.5,3.4-7.3,4.4
		c-13.4,5.6-27.8,9-42.3,10c-4,0.2-8.2,0.3-12.1-1s-7.4-4.2-8.4-8.1c-2.4-9,17.3-11.9,22.6-12.9c5.3-1,10.6-1.6,15.9-1.8
		C2107.9,102.2,2115.9,99.7,2123.9,100z"/>
	<path fill="#68751C" d="M2122.1,159c-5.3-13.1-37.2,1.3-44.5,6c-2.7,1.7-5.5,4.3-5,7.5c0.5,3.4,4.5,4.9,8,5.3
		C2089,178.7,2128.4,174.5,2122.1,159z"/>
	<path fill="#68751C" d="M2021.9,116.6c-1.3,8.7-13,18.2-20.8,20.9c-7.6,2.7-20.2-2.9-15.6-12.1c4.1-8,24.5-22.3,33.3-16.5
		C2021.3,110.5,2022.3,113.8,2021.9,116.6z"/>
	<path fill="#68751C" d="M2044.3,159.7c12.4,1.5,25.2-0.1,36.9-4.5c2.6-1,5.3-2.3,6.4-4.9c0.8-1.9,0.2-4.3-1.3-5.7s-3.9-1.8-5.7-1
		c-3.5-3.8-9.5-3.5-14.6-2.5c-8,1.6-15.9,4.5-23.2,8.3c-2.6,1.4-5.5,3.8-4.8,6.6C2038.8,158.5,2041.8,159.3,2044.3,159.7z"/>
	<path fill="#68751C" d="M2058.9,149.6c16.5,3.7,34.5-1.1,48.6-10.2c1.8-1.2,3.9-3,3.6-5.3c-0.4-2.7-3.9-3.6-6.7-3.5
		c-16,0.2-32.3,4.2-46.2,12.3c-1.6,0.9-3.4,2.4-2.9,4.1C2055.5,148.6,2057.4,149.3,2058.9,149.6z"/>
	<g>
		<path fill="#68751C" d="M1976.3,127.7c1.5-1.8,2.8-4.1,2.2-6.3c-3-12-19.4,3.6-23.3,7.1c-5,4.5-4.8,8.6,3.4,8.6
			C1965.2,137,1972.2,132.6,1976.3,127.7z"/>
	</g>
</g>
<g enable-background="new    ">
	<path fill="#0C3251" d="M2205.3,216.2c1.6-1.9,4.4-2.2,6.3-0.6c3.8,3.1,10.4,6.8,16.5,6.7c4.3,0,8.2-1.3,10.8-3.2
		c2.6-1.9,3.7-4.1,3.7-6.2c0-1.1-0.3-1.9-0.8-2.8c-0.5-0.9-1.3-1.7-2.6-2.6c-2.5-1.6-6.8-3.1-11.9-4.1h-0.2
		c-4.1-0.8-7.9-1.8-11.2-3.4c-3.3-1.6-6.1-3.7-8.1-6.8c-1.3-2.1-2-4.5-2-7.1c0-5.2,2.9-9.7,6.9-12.6c4.1-2.9,9.4-4.6,15-4.6
		c8.3,0,14.5,4.1,18.9,6.9c2,1.4,2.6,4.2,1.2,6.1c-1.3,2.1-4.1,2.7-6.1,1.3c-4.4-2.9-8.7-5.5-13.9-5.5c-3.9,0-7.4,1.2-9.7,2.9
		s-3.3,3.6-3.3,5.5c0,1,0.2,1.7,0.6,2.4c0.4,0.7,1.2,1.5,2.3,2.3c2.3,1.6,6.1,2.9,10.8,3.8h0.2c4.4,0.9,8.5,2,12,3.6
		c3.6,1.7,6.7,4,8.7,7.2c1.3,2.1,2.1,4.7,2.1,7.4c0,5.5-3.1,10.3-7.4,13.4c-4.2,3.1-9.9,4.9-16,4.9c-9.4-0.1-17.2-4.8-22.2-8.7
		C2204,221,2203.8,218.2,2205.3,216.2z"/>
</g>
<g enable-background="new    ">
	<path fill="#0C3251" d="M2346.1,177.9l-21.2,50.5c-0.1,0.3-0.3,0.6-0.4,0.8l-0.1,0.1c-0.1,0.2-0.3,0.3-0.4,0.5
		c0,0.2-0.1,0.2-0.1,0.3c-0.2,0.1-0.4,0.3-0.6,0.4h-0.1c-0.3,0.2-0.4,0.4-0.8,0.5h-0.1c0,0-0.1,0-0.1,0.1c-0.2,0-0.4,0.1-0.7,0.2
		c-0.1,0-0.2,0-0.2,0c-0.3,0.1-0.5,0.1-0.9,0.1c-0.3,0-0.5,0-0.8-0.1c-0.2,0-0.3,0-0.3,0c-0.3-0.1-0.4-0.2-0.6-0.2
		c-0.1-0.1-0.1-0.1-0.2-0.1c-0.3-0.1-0.6-0.3-0.8-0.5c-0.1,0-0.1,0-0.1,0c-0.3-0.2-0.4-0.3-0.6-0.4c-0.1-0.1-0.1-0.1-0.2-0.3
		s-0.3-0.3-0.3-0.5c-0.2,0-0.2-0.1-0.2-0.1c-0.2-0.2-0.3-0.5-0.3-0.8l-11.3-26.8l-11.3,26.8c-0.1,0.3-0.3,0.6-0.3,0.8
		c-0.1,0-0.1,0.1-0.1,0.1c-0.2,0.2-0.3,0.3-0.5,0.5c0,0.2-0.1,0.2-0.1,0.3c-0.2,0.1-0.3,0.3-0.5,0.4c-0.2,0-0.2,0-0.2,0
		c-0.3,0.2-0.5,0.4-0.7,0.5c-0.1,0-0.1,0-0.1,0s-0.1,0-0.1,0.1c-0.3,0-0.5,0.1-0.7,0.2c-0.1,0-0.2,0-0.3,0c-0.3,0.1-0.5,0.1-0.8,0.1
		s-0.6,0-0.9-0.1c-0.1,0-0.2,0-0.3,0c-0.3-0.1-0.4-0.2-0.6-0.2c-0.1-0.1-0.1-0.1-0.2-0.1c-0.3-0.1-0.6-0.3-0.8-0.5
		c-0.1,0-0.1,0-0.1,0c-0.3-0.2-0.3-0.3-0.6-0.4c-0.1-0.1-0.1-0.1-0.2-0.3c-0.2-0.2-0.3-0.3-0.4-0.5v-0.1c-0.2-0.2-0.3-0.5-0.4-0.8
		l-21.3-50.5c-1-2.3,0.1-5.2,2.6-6.1c2.3-1,5.2,0.1,6.1,2.5l17,40.1l11.2-26.6c0.8-1.9,2.6-2.9,4.5-2.9c1.8,0,3.6,1,4.5,2.9
		l11.2,26.6l16.9-40.1c1-2.4,3.8-3.6,6.3-2.5C2346,172.7,2347.1,175.5,2346.1,177.9z"/>
</g>
<g enable-background="new    ">
	<path fill="#0C3251" d="M2389,217h-21l-4.2,11.3c-0.8,1.9-2.6,3-4.5,3c-0.6,0-1.1-0.1-1.6-0.3c-2.5-1-3.7-3.7-2.9-6.2l19.1-51
		c0.8-1.9,2.7-3.1,4.6-3c2-0.1,3.8,1.1,4.6,3l19.1,51c0.9,2.5-0.3,5.3-2.9,6.2c-0.4,0.2-1,0.3-1.6,0.3c-1.9,0-3.7-1.1-4.4-3
		L2389,217z M2385.5,207.5l-7-18.6l-7,18.6H2385.5z"/>
</g>
<g enable-background="new    ">
	<path fill="#0C3251" d="M2456.8,178.8l-17.8,24.3v23.4c0,2.7-2.1,4.8-4.8,4.8c-2.5,0-4.8-2.1-4.8-4.8v-23.4l-17.6-24.3
		c-1.6-2.1-1.2-5,1-6.6s5.1-1.1,6.6,1l14.8,20.3l14.8-20.3c1.6-2.2,4.6-2.6,6.7-1S2458.3,176.8,2456.8,178.8z"/>
</g>
</svg>
