<?xml version="1.0" encoding="utf-8"?>
<!-- Generator: Adobe Illustrator 18.0.0, SVG Export Plug-In . SVG Version: 6.00 Build 0)  -->
<!DOCTYPE svg PUBLIC "-//W3C//DTD SVG 1.1//EN" "http://www.w3.org/Graphics/SVG/1.1/DTD/svg11.dtd">
<svg version="1.1" id="Layer_1" xmlns="http://www.w3.org/2000/svg" xmlns:xlink="http://www.w3.org/1999/xlink" x="0px" y="0px"
	 viewBox="0 0 247.3 326.3" enable-background="new 0 0 247.3 326.3" xml:space="preserve">
<rect x="0" y="0" fill="#FFBCA1" width="247.3" height="247.3"/>
<polygon fill="#FF4040" points="123.7,231.3 10.5,188.2 10.5,170.9 123.7,181 236.8,170.9 236.8,188.2 "/>
<path fill="#AFA137" d="M123.7,214L10.5,170.9c0,0,7.5-2.9,8.9-3.4c6.7-2.5,13.8-4.6,20.3-7.4c13.5-6,28.3-9.8,43.1-10
	c8.5-0.1,16.4,2.5,24.7,1.2c9.6-1.6,18.8-5.2,28.4-7.1c17.4-3.3,34.3,1.2,50.4,7.6c16.5,6.5,32.6,12.3,49.2,18.6
	c0.5,0.2,0.9,0.3,1.4,0.5L123.7,214z"/>
<g>
	<g>
		<path fill="#FFFFFF" d="M47.6,173.1c-1.4-31.4,30.4-48.3,53.9-61.2c20.5-11.2,46.1-25.8,40.8-53.1c-1.1-5.7-9.8-3.3-8.7,2.4
			c2.4,12.5-4.7,22-14.2,29.2c-11.2,8.5-24.1,14.5-36.3,21.4c-22.5,12.8-45.8,33-44.6,61.3C38.8,178.8,47.8,178.9,47.6,173.1
			L47.6,173.1z"/>
	</g>
</g>
<g>
	<g>
		<path fill="#FFFFFF" d="M87,121.6c31.2,6.5,64.1-2.8,87.2-24.8c4.2-4-2.2-10.4-6.4-6.4c-20.6,19.7-50.5,28.3-78.4,22.5
			C83.8,111.7,81.3,120.4,87,121.6L87,121.6z"/>
	</g>
</g>
<g>
	<path fill="#68751C" d="M87,56.1c8.2,2,22.1-7.5,28.3-10.5c8-3.9,16.3-6.9,24.4-10.5c3.1-1.4,13.2-4.6,13.3-9.1
		c0.2-5.6-10.5-5.9-14-5.5c-7.1,0.7-14,2.9-20.8,4.9c-7,2.1-13.8,4.9-20.3,8.4c-4.9,2.6-11.6,7.2-14.5,12c-1.8,2.9-1.7,7.2,1.1,9.2
		C85.2,55.5,86,55.9,87,56.1z"/>
	<path fill="#68751C" d="M137.2,40.9c1.4-0.8,2.8-1.5,4.2-2.2c11.6-5.5,25-10,38.2-11c11.5-0.9,24.2-3,35.6,0.1
		c5.9,1.6,12.4,7.3,9.3,12.8c-2.3,4.1-11.7,9.6-15.8,12.6c-15.1,10.7-36.2,15.4-55.5,16.4c-14,0.7-37.1-7.3-24.3-22.4
		C131.1,44.7,134.1,42.7,137.2,40.9z"/>
	<path fill="#68751C" d="M214.2,53.4c3.2,0.1,6.9,0.9,8.4,3.8c1.2,2.4,0.3,5.3-1.4,7.3c-1.8,2-4.2,3.1-6.7,4.1
		c-12.4,5.2-25.7,8.3-39.1,9.2c-3.7,0.2-7.6,0.3-11.2-0.9c-3.6-1.2-6.8-3.9-7.8-7.5c-2.2-8.3,16-11,20.9-11.9
		c4.9-0.9,9.8-1.5,14.7-1.7C199.4,55.4,206.6,53.1,214.2,53.4z"/>
	<path fill="#68751C" d="M212.5,107.9c-4.9-12.1-34.4,1.2-41.1,5.5c-2.5,1.6-5.1,4-4.6,6.9c0.5,3.1,4.2,4.5,7.4,4.9
		C181.9,126.1,218.2,122.2,212.5,107.9z"/>
	<path fill="#68751C" d="M119.8,68.7c-1.2,8-12,16.8-19.2,19.3c-7,2.5-18.7-2.7-14.4-11.2c3.8-7.4,22.6-20.6,30.8-15.2
		C119.4,63.1,120.2,66.1,119.8,68.7z"/>
	<path fill="#68751C" d="M140.6,108.5c11.5,1.4,23.3-0.1,34.1-4.2c2.4-0.9,4.9-2.1,5.9-4.5c0.7-1.8,0.2-4-1.2-5.3s-3.6-1.7-5.3-0.9
		c-3.2-3.5-8.8-3.2-13.5-2.3c-7.4,1.5-14.7,4.2-21.4,7.7c-2.4,1.3-5.1,3.5-4.4,6.1C135.5,107.4,138.2,108.2,140.6,108.5z"/>
	<path fill="#68751C" d="M153.9,99.2c15.2,3.4,31.9-1,44.9-9.4c1.7-1.1,3.6-2.8,3.3-4.9c-0.4-2.5-3.6-3.3-6.2-3.2
		c-14.8,0.2-29.8,3.9-42.7,11.4c-1.5,0.8-3.1,2.2-2.7,3.8C151,98.3,152.6,98.9,153.9,99.2z"/>
	<g>
		<path fill="#68751C" d="M77.8,79c1.4-1.7,2.6-3.8,2-5.8c-2.8-11.1-17.9,3.3-21.5,6.6c-4.6,4.2-4.4,7.9,3.1,7.9
			C67.5,87.6,74,83.5,77.8,79z"/>
	</g>
</g>
<g>
	<path fill="#0C3251" d="M7.1,312.4c1.4-1.8,4.1-2,5.8-0.6c3.5,2.9,9.6,6.2,15.3,6.2c4,0,7.6-1.2,10-3c2.4-1.8,3.4-3.8,3.4-5.8
		c0-1-0.2-1.8-0.7-2.6c-0.5-0.8-1.2-1.6-2.4-2.4c-2.3-1.5-6.2-2.9-11-3.8h-0.2c-3.8-0.7-7.3-1.7-10.3-3.1c-3-1.4-5.7-3.4-7.4-6.2
		c-1.2-1.9-1.8-4.2-1.8-6.6c0-4.8,2.7-9,6.4-11.7c3.8-2.7,8.6-4.2,13.8-4.2c7.7,0,13.4,3.8,17.4,6.4c1.8,1.3,2.4,3.8,1.1,5.7
		c-1.2,1.9-3.8,2.5-5.7,1.2c-4.1-2.7-8-5.1-12.9-5.1c-3.6,0-6.8,1.1-9,2.7c-2.2,1.6-3,3.4-3,5c0,1,0.2,1.6,0.6,2.2
		c0.4,0.6,1.1,1.4,2.2,2.1c2.1,1.4,5.7,2.7,10,3.5h0.2c4.1,0.8,7.8,1.8,11,3.4c3.3,1.6,6.2,3.7,8,6.6c1.2,1.9,1.9,4.3,1.9,6.8
		c0,5.1-2.9,9.5-6.9,12.4c-3.9,2.9-9.1,4.6-14.8,4.6c-8.6-0.1-15.9-4.4-20.5-8C6,316.8,5.7,314.2,7.1,312.4z"/>
	<path fill="#0C3251" d="M137.2,277l-19.6,46.6c-0.1,0.2-0.2,0.6-0.4,0.7l-0.1,0.1c-0.1,0.2-0.2,0.3-0.4,0.5c0,0.2-0.1,0.2-0.1,0.2
		c-0.2,0.1-0.4,0.2-0.6,0.4H116c-0.2,0.2-0.4,0.4-0.7,0.5h-0.1c0,0-0.1,0-0.1,0.1c-0.2,0-0.4,0.1-0.6,0.2c-0.1,0-0.2,0-0.2,0
		c-0.2,0.1-0.5,0.1-0.8,0.1c-0.2,0-0.5,0-0.7-0.1c-0.2,0-0.2,0-0.2,0c-0.2-0.1-0.4-0.2-0.6-0.2c-0.1-0.1-0.1-0.1-0.2-0.1
		c-0.3-0.1-0.6-0.3-0.7-0.5c-0.1,0-0.1,0-0.1,0c-0.2-0.2-0.4-0.3-0.6-0.4c-0.1-0.1-0.1-0.1-0.2-0.2c-0.1-0.2-0.2-0.3-0.3-0.5
		c-0.2,0-0.2-0.1-0.2-0.1c-0.2-0.2-0.2-0.5-0.3-0.7L99,298.8l-10.5,24.8c-0.1,0.2-0.2,0.6-0.3,0.7c-0.1,0-0.1,0.1-0.1,0.1
		c-0.2,0.2-0.3,0.3-0.5,0.5c0,0.2-0.1,0.2-0.1,0.2c-0.2,0.1-0.3,0.2-0.5,0.4c-0.2,0-0.2,0-0.2,0c-0.2,0.2-0.5,0.4-0.6,0.5
		c-0.1,0-0.1,0-0.1,0s-0.1,0-0.1,0.1c-0.3,0-0.5,0.1-0.6,0.2c-0.1,0-0.2,0-0.2,0c-0.2,0.1-0.5,0.1-0.7,0.1s-0.6,0-0.8-0.1
		c-0.1,0-0.2,0-0.2,0c-0.2-0.1-0.4-0.2-0.6-0.2c-0.1-0.1-0.1-0.1-0.2-0.1c-0.2-0.1-0.6-0.3-0.7-0.5c-0.1,0-0.1,0-0.1,0
		c-0.2-0.2-0.3-0.3-0.6-0.4c-0.1-0.1-0.1-0.1-0.2-0.2c-0.2-0.2-0.2-0.3-0.4-0.5v-0.1c-0.2-0.2-0.2-0.5-0.4-0.7L60.8,277
		c-0.9-2.2,0.1-4.8,2.4-5.7c2.2-1,4.8,0.1,5.7,2.3l15.7,37l10.3-24.6c0.7-1.8,2.4-2.7,4.2-2.7c1.7,0,3.4,1,4.2,2.7l10.3,24.6
		l15.6-37c1-2.2,3.5-3.3,5.8-2.3C137.1,272.2,138.1,274.8,137.2,277z"/>
	<path fill="#0C3251" d="M176.9,313.1h-19.4l-3.9,10.4c-0.7,1.8-2.4,2.8-4.2,2.8c-0.6,0-1-0.1-1.5-0.2c-2.3-0.9-3.4-3.4-2.6-5.8
		l17.7-47.1c0.7-1.8,2.5-2.9,4.2-2.8c1.8-0.1,3.5,1,4.2,2.8l17.7,47.1c0.8,2.3-0.3,4.9-2.6,5.8c-0.4,0.2-1,0.2-1.5,0.2
		c-1.8,0-3.4-1-4.1-2.8L176.9,313.1z M173.6,304.3l-6.5-17.2l-6.5,17.2H173.6z"/>
	<path fill="#0C3251" d="M239.4,277.9L223,300.3v21.6c0,2.5-1.9,4.4-4.4,4.4c-2.3,0-4.4-1.9-4.4-4.4v-21.6L198,277.9
		c-1.5-1.9-1.1-4.6,0.9-6.1c2-1.4,4.7-1,6.1,1l13.7,18.7l13.7-18.7c1.5-2,4.2-2.4,6.2-1C240.4,273.2,240.8,275.9,239.4,277.9z"/>
</g>
</svg>
